<svg width="16" height="16" viewBox="0 0 16 16" fill="none" xmlns="http://www.w3.org/2000/svg">
<path d="M8 1C6.61553 1 5.26216 1.41054 4.11101 2.17971C2.95987 2.94888 2.06266 4.04213 1.53285 5.32122C1.00303 6.6003 0.86441 8.00776 1.13451 9.36563C1.4046 10.7235 2.07129 11.9708 3.05026 12.9497C4.02922 13.9287 5.2765 14.5954 6.63437 14.8655C7.99224 15.1356 9.3997 14.997 10.6788 14.4672C11.9579 13.9373 13.0511 13.0401 13.8203 11.889C14.5895 10.7378 15 9.38447 15 8C14.9979 6.14412 14.2598 4.36485 12.9475 3.05255C11.6351 1.74025 9.85588 1.00208 8 1ZM8 14C6.81332 14 5.65328 13.6481 4.66658 12.9888C3.67989 12.3295 2.91085 11.3925 2.45673 10.2961C2.0026 9.19974 1.88378 7.99334 2.11529 6.82946C2.3468 5.66557 2.91825 4.59647 3.75736 3.75736C4.59648 2.91824 5.66558 2.3468 6.82946 2.11529C7.99335 1.88378 9.19975 2.0026 10.2961 2.45672C11.3925 2.91085 12.3295 3.67988 12.9888 4.66658C13.6481 5.65327 14 6.81331 14 8C13.9983 9.59077 13.3656 11.1159 12.2407 12.2407C11.1159 13.3656 9.59077 13.9983 8 14Z" fill="black" fill-opacity="0.95"/>
<path d="M7.87499 6.74981C8.22017 6.74981 8.49999 6.46999 8.49999 6.12481C8.49999 5.77964 8.22017 5.49981 7.87499 5.49981C7.52982 5.49981 7.24999 5.77964 7.24999 6.12481C7.24999 6.46999 7.52982 6.74981 7.87499 6.74981Z" fill="black" fill-opacity="0.95"/>
<path d="M9 10H8.5V8C8.50004 7.93433 8.48713 7.86929 8.46202 7.80861C8.43691 7.74793 8.40008 7.6928 8.35364 7.64636C8.3072 7.59993 8.25207 7.5631 8.19139 7.53798C8.13071 7.51287 8.06567 7.49996 8 7.5H7.5C7.36739 7.5 7.24022 7.55268 7.14645 7.64645C7.05268 7.74021 7 7.86739 7 8C7 8.13261 7.05268 8.25979 7.14645 8.35355C7.24022 8.44732 7.36739 8.5 7.5 8.5V10H7C6.86739 10 6.74022 10.0527 6.64645 10.1464C6.55268 10.2402 6.5 10.3674 6.5 10.5C6.5 10.6326 6.55268 10.7598 6.64645 10.8536C6.74022 10.9473 6.86739 11 7 11H9C9.13261 11 9.25979 10.9473 9.35356 10.8536C9.44732 10.7598 9.5 10.6326 9.5 10.5C9.5 10.3674 9.44732 10.2402 9.35356 10.1464C9.25979 10.0527 9.13261 10 9 10Z" fill="black" fill-opacity="0.95"/>
</svg>
